<svg xmlns="http://www.w3.org/2000/svg" xmlns:xlink="http://www.w3.org/1999/xlink"><defs><symbol id="tf-logo-8a520" viewBox="0 0 18 114"><title>logo</title><path d="M.174 13.68h9.193l-6.465-2.947V8.156l6.465-2.949H.174V.375h17.451v5.278l-8.21 3.791 8.21 3.816v5.254H.174zm0 8.377h17.451v4.832H.174zm8.577 12.061H.174v-4.833h17.451v3.766l-8.874 7.063h8.874v4.832H.174v-3.841zM.174 47.87h17.451v6.765c0 1.453-.23 2.733-.688 3.84-.458 1.108-1.083 2.033-1.868 2.776a7.838 7.838 0 0 1-2.765 1.685 9.921 9.921 0 0 1-3.38.57c-1.327 0-2.528-.21-3.601-.632a7.773 7.773 0 0 1-2.753-1.795c-.764-.777-1.352-1.71-1.771-2.8-.42-1.092-.626-2.305-.626-3.643l.001-6.766zm8.75 10.73c.671 0 1.286-.091 1.844-.273a4.165 4.165 0 0 0 1.427-.78c.393-.34.701-.756.92-1.253a4.04 4.04 0 0 0 .331-1.66v-1.932H4.353v1.933c0 .626.112 1.19.344 1.685.228.495.548.912.958 1.251.411.339.892.595 1.45.768.556.174 1.163.26 1.819.26zM4.353 77.96H.174V65.423h17.451v12.316h-4.179v-7.484H10.99v6.394H7.106v-6.394H4.353v7.707zM.174 80.91h17.451v8.077c0 .859-.176 1.653-.53 2.38a6.184 6.184 0 0 1-1.376 1.87 6.427 6.427 0 0 1-1.942 1.227 5.807 5.807 0 0 1-2.199.446 6.158 6.158 0 0 1-2.838-.669 5.795 5.795 0 0 1-2.152-1.858L.173 96.348v-5.451l5.356-3.345v-1.81H.173V80.91h.001zm9.536 4.832v3.048c0 .297.163.574.49.83.328.256.788.384 1.378.384.606 0 1.07-.15 1.389-.446.32-.297.478-.595.478-.892v-2.924H9.71zM.174 96.397l17.451 6.567v3.915L.174 113.421v-5.105l3.417-1.065v-4.684l-3.417-1.04v-5.13zm12.462 8.524l-5.85-1.635v3.197l5.85-1.562z" fill="#161616"/></symbol><symbol id="tf-minder-5a2b0" viewBox="0 0 34 42"><title>minder</title><ellipse fill="#FFF" cx="17.488" cy="16.694" rx="10.456" ry="10.359"/><path d="M16.969.398C7.624.398.052 7.643.052 16.578c0 8.936 7.572 24.98 16.917 24.98 9.342 0 16.915-16.044 16.915-24.98C33.883 7.643 26.311.398 16.97.398zm0 21.22c-4.577 0-8.288-2.667-8.288-5.96 0-3.288 3.711-5.955 8.288-5.955 4.576 0 8.285 2.667 8.285 5.956 0 3.29-3.709 5.958-8.285 5.958z" fill="#FFD100"/><ellipse fill="#161616" cx="16.967" cy="15.659" rx="2.87" ry="2.843"/></symbol><symbol id="tf-hamburger-77512" viewBox="0 0 34 26"><title>hamburger</title><path d="M0 0h34v6H0zm0 10h34v6H0zm0 10h34v6H0z" fill="#161616"/></symbol><symbol id="tf-hamburger-mobile-ee35a" viewBox="0 0 34 26"><title>hamburguer-mobile</title><path d="M0 0h34v6H0zm0 10h34v6H0zm0 10h34v6H0z" fill="#171717" fill-rule="evenodd"/></symbol><symbol id="tf-hamburger-0d517" viewBox="0 0 30 30"><title>hamburger.active</title><g fill="#161616"><path d="M5.1.858l24.042 24.041-4.243 4.243L.858 5.101z"/><path d="M.858 24.9L24.899.857 29.142 5.1 5.101 29.142z"/></g></symbol><symbol id="tf-noths-white-6b41d" viewBox="0 0 144 96"><path d="M24.2 41.658c-.08-.433-.545-.864-.256-1.365-.33-.443-.297-1.672-.39-2.632-.029-.319-.19-.626-.208-.907-.14-2.078-.29-4.312-.346-6.177.86 2.99 1.008 6.314 1.418 9.262.373 2.676.758 5.486 1.288 7.993.061.29.122.573.183.854V29.58c-.703.04-1.408.06-2.116.046a28.305 28.305 0 0 1 2.116-.454v-2.78H46.2c.364-.039.728-.079 1.09-.116 2.284-.235 4.539-.374 6.665-.633 2.855-.347 7.732-.906 10.69-1.072.637-.035 1.088-.112 1.665-.187.675-.088 3.844-.482 3.382-.361-.615.322-4.175.802-4.72.92-.546.119-1.648.214-2.03.275-1.05.168-5.016.633-6.865.85-.259.03-2.1.26-2.353.324h21.114a136.176 136.176 0 0 1-3.071-2.056c1.049.418 2.313 1.254 3.506 2.056h2.9L89.02 36.85v9.436c-1.669-.38-3.04-.237-4.422.001 0 0-1.718.11-1.718 1.65 0 1.816 2.219 1.699 2.219 1.699 1.271.482 3.013.503 3.921.431v8.931L78.376 69.642H51.942c-1.47.204-2.94.364-4.436.448-4.294.242-8.661 1.419-13.2 2.056-1.552.22-3.146.331-4.693.659-.116.029-.142.129-.213.195-.644-.109-1.521-.644-1.12-1.278.01-.184-.169-.136-.2-.27.174-.314.193-1.011-.176-1.142.173-.142.119-.402.05-.668h-2.065V54.229a.186.186 0 0 0-.107-.017c.063-.082.08-.202.107-.315v-.318a.837.837 0 0 1-.051.047c-.076-.357-.123-.486.05-.612v-.077c-.05-.01-.122.006-.179.005.029-.26.028-.378-.116-.568.08-.144.24-.539.01-.465.003-.103.086-.142.218-.14-.003-.126-.207-.003-.293-.026-.003-.161.151-.194.263-.26-.15-.102-.227.079-.305-.143.054-.243.146-.028.288-.03-.198-.26-.196-.234-.405-.539.108-.148.121-.457.05-.644-.008-.022-.194-.19-.189-.154-.048-.323.151-.494.03-.817-.037-.103-.093.048-.126-.103-.289-1.345-.386-2.68-.437-4.251-.025-.076-.149-.033-.236-.034.122-.204-.109-.366.08-.356.015-.258-.11.058-.127-.104.2-.703-.23-1.558-.306-2.406-.003-.042.077-.318.091-.244v.001zm23.862 27.984H29.066c.067.35.124.7.155 1.053.04.445.092 1.16.184 1.781 1.614-.306 3.176-.453 4.636-.65 3.422-.465 6.88-1.316 10.442-1.772 1.2-.154 2.386-.276 3.58-.412zm6.56-5.688c-.831 0-1.495-.632-1.495-1.453 0-.821.664-1.452 1.496-1.452.826 0 1.496.63 1.496 1.452 0 .821-.67 1.453-1.496 1.453zm-2.245-1.98a1.178 1.178 0 0 0-.843-.337c-.511 0-.887.363-.887.858 0 .496.376.86.887.86.305 0 .593-.092.843-.338v.654c-.228.184-.543.277-.88.277-.85 0-1.497-.615-1.497-1.453 0-.837.647-1.452 1.497-1.452.337 0 .652.098.88.277v.653zm-3.755 1.942a.382.382 0 0 1-.381-.376c0-.207.18-.37.38-.37.202 0 .376.163.376.37a.377.377 0 0 1-.375.376zm12.368-.044v-1.698c0-.674-.347-1.098-.951-1.098-.398 0-.73.135-.898.478-.13-.304-.386-.478-.767-.478-.36 0-.626.185-.74.446v-.392h-.647v2.742h.647v-1.579c0-.374.228-.635.533-.635.315 0 .49.24.49.61v1.604h.647v-1.579c0-.374.229-.635.544-.635.316 0 .49.24.49.61v1.604h.652zm-6.386-2.23a.839.839 0 0 0-.85.86.84.84 0 0 0 .85.859.842.842 0 0 0 .849-.86c0-.485-.37-.86-.85-.86zm-14.848-6.478c-1.04-.39-1.858-.817-1.858-1.96 0-1.068.91-1.746 2.006-1.746.985 0 1.617.454 1.997 1.05l-.826.567c-.232-.363-.595-.576-1.152-.576-.511 0-.883.287-.883.687 0 .594.52.696 1.468 1.086 1.18.475 1.727.976 1.727 1.97 0 1.096-.742 1.914-2.266 1.914-1.236 0-2.09-.585-2.49-1.477l.874-.548c.297.585.845.984 1.625.984.901 0 1.097-.53 1.097-.845 0-.585-.53-.808-1.32-1.106zm12.148-3.594h-2.518v6.474h1.162V55.74H51.7l1.384 2.304h1.31l-1.57-2.582c.696-.288 1.18-.985 1.18-1.84 0-1.17-.948-2.052-2.1-2.052zM70.3 58.044V52.62h1.756v-1.05h-4.673v1.05h1.756v5.424H70.3zm-10.21 0v-1.05h-3.03v-1.783h2.778v-1.05H57.06V52.62h2.964v-1.05h-4.126v6.474h4.19zm6.027 0v-1.05h-3.028v-1.783h2.777v-1.05h-2.777V52.62h2.963v-1.05h-4.125v6.474h4.19zm-19.905 0V52.62h1.756v-1.05h-4.673v1.05h1.756v5.424h1.161zm46.063-7.09s.329-.221.402-.403c0 0 2.104.308 5.293-.471 2.546-.621 3.653-.876 3.653-.876.277-.026 7.473.84 12.949 1.7 1.3.203 2.9.46 2.9.46l-.44 3.362s-10.895-1.716-16.12-2.201c-4.09-.38-6.524-.776-8.637-1.57zM51.857 52.62c.558 0 .976.426.976 1.02 0 .624-.437 1.06-1.069 1.06H50.53v-2.08h1.328zm37.529-7.259s1.498.318 2.804 2.319c.197.292.66 1.21.417 2.1-.275 1.004-1.382 1.426-1.382 1.426l-1.98-1.24s.986-.694.986-2.038c0-1.798-.845-2.567-.845-2.567zm3.47 4.829s.214-.426.181-1.142-.404-1.35-.404-1.35 1.632-.098 5.163-1.205c3.531-1.106 13.18-3.45 15.214-3.906 2.034-.455 7.957-1.805 8.006-1.805.049 0 .163 1.041.326 1.643.162.603.406 1.627.406 1.627s-10.186 2.392-12.708 2.994c-2.522.602-9.783 2.336-11.654 2.757-1.415.319-2.69.468-4.53.387zm-7.61-.862c.048-1.108-.39-2.744-.39-2.744s1.2-.188 2.443-.188c1.244 0 2.342.448 2.342.448s.325.585.144 1.537c-.147.776-.897 1.312-.897 1.312-2.47.093-3.641-.365-3.641-.365zm-15.214-2.946c-.057.398-.262.748-.61 1.039-.368.307-.79.463-1.253.463-.545 0-1.06-.21-1.527-.623-.501-.445-.754-1.019-.754-1.706 0-.667.227-1.229.676-1.67.45-.45 1.013-.679 1.677-.679.737 0 1.372.342 1.888 1.018l.043.057.792-.747-.04-.046c-.41-.46-.832-.797-1.258-1.002a3.402 3.402 0 0 0-1.442-.31c-.954 0-1.775.332-2.442.987a3.241 3.241 0 0 0-1.002 2.396c0 .919.331 1.716.986 2.371a3.25 3.25 0 0 0 2.37.984c.942 0 1.729-.343 2.339-1.02.27-.302.465-.632.58-.98a4.38 4.38 0 0 0 .173-1.289v-.274h-2.8v1.03h1.604zm-28.894-1.576h-3.112v-2.527h-1.16v6.475h1.16v-2.898h3.112v2.898h1.152v-6.475h-1.152v2.527zm7.432 3.948v-1.05h-3.028v-1.783h2.778v-1.05h-2.778V43.33h2.963v-1.05h-4.124v6.475h4.189zm29.04-3.948h-3.112v-2.527h-1.161v6.475h1.16v-2.898h3.113v2.898h1.151v-6.475h-1.15v2.527zm-15.734 3.948h1.161v-6.475h-1.161v6.475zm-28.187 0v-5.425h1.756v-1.05h-4.673v1.05h1.756v5.425h1.161zm24.626-3.948h-3.112v-2.527h-1.16v6.475h1.16v-2.898h3.112v2.898h1.152v-6.475h-1.152v2.527zm31.296 1.663s-.046-.261-.366-.64v.526s.152.028.366.114zM40.56 32.99v4.088l-4.412-4.33v6.717h1.161v-4.07l4.413 4.312V32.99H40.56zm31.667 0v4.088l-4.413-4.33v6.717h1.161v-4.07l4.413 4.312V32.99h-1.161zm-25.379-.112c1.905 0 3.428 1.46 3.428 3.363 0 1.905-1.523 3.354-3.428 3.354-1.896 0-3.418-1.449-3.418-3.354 0-1.904 1.522-3.363 3.418-3.363zm15.83 0c1.904 0 3.428 1.46 3.428 3.363 0 1.905-1.524 3.354-3.429 3.354-1.894 0-3.418-1.449-3.418-3.354 0-1.904 1.524-3.363 3.418-3.363zm-8.584 6.587V34.04h1.756v-1.05h-4.672v1.05h1.756v5.425h1.16zm8.564-.92c1.293 0 2.277-1.003 2.277-2.304 0-1.29-.984-2.313-2.277-2.313-1.29 0-2.275 1.013-2.275 2.313 0 1.31.985 2.305 2.275 2.305zm-15.829 0c1.291 0 2.277-1.003 2.277-2.304 0-1.29-.986-2.313-2.277-2.313-1.291 0-2.276 1.013-2.276 2.313 0 1.31.985 2.305 2.276 2.305z" fill="#F5F5F5" fill-rule="evenodd"/></symbol><symbol id="tf-nuface-white-3a1b6" viewBox="0 0 192 96"><path d="M128.703 56c-4.227 0-7.376-3.293-7.376-7.479 0-4.144 3.087-7.521 7.479-7.521 2.672 0 4.289.933 5.678 2.258l-1.638 1.886c-1.16-1.077-2.403-1.804-4.061-1.804-2.775 0-4.785 2.279-4.785 5.138 0 2.86 2.01 5.18 4.785 5.18 1.782 0 2.922-.725 4.165-1.886l1.637 1.657c-1.513 1.576-3.169 2.571-5.884 2.571zm-55.23-6.526c0 4.33-2.444 6.505-6.237 6.505-3.772 0-6.174-2.175-6.174-6.383v-4.488h2.548v4.386c0 2.694 1.388 4.146 3.667 4.146 2.26 0 3.648-1.369 3.648-4.044v-4.488h2.548v4.366zm11.818 6.278h-2.549V41.249h10.794v2.32h-8.245v3.959h7.312v2.318h-7.312v5.906zm67.16-12.225h-8.205v3.772h7.273v2.278h-7.273v3.896h8.308v2.278h-10.857V41.248h10.754v2.279zm-36.768 12.224h-2.694l-1.47-3.5h-6.859l-1.491 3.5h-2.61l6.38-14.607h2.363l6.381 14.607zm-66.552-4.476V41.249h2.507V55.75h-2.135l-7.996-10.315V55.75H39V41.249h2.363l7.768 10.026zm58.948-7.083l-2.486 5.8h4.994l-2.508-5.8zm-46.984-.918h12.422v-2.02H61.095v2.02z" fill="#fff"/></symbol><symbol id="tf-iris-05d7b" viewBox="0 0 144 96"><path d="M33 57.161h4.701v-6.577H33v6.577zm36.761-10.617c-1.932.193-3.902.043-5.926.043v-5.789c1.958 0 3.804-.074 5.639.021 1.701.088 2.796 1.168 2.868 2.587.09 1.774-.72 2.952-2.581 3.138zm3.301 3.117c3.084-1.403 4.416-3.753 4.061-7.165-.288-2.774-2.16-4.7-5.369-5.453a10.56 10.56 0 0 0-2.291-.273c-3.245-.03-6.49-.015-9.735-.011-.198 0-.396.038-.583.058v20.276h4.667v-6.499c1.074 0 2.054.03 3.031-.011.548-.024.87.176 1.16.591a420.875 420.875 0 0 0 3.875 5.455c.152.212.407.502.62.507 1.706.042 3.413.024 5.287.024l-5.255-7.241c.23-.112.38-.188.532-.258zm7.444 7.452h4.605V36.781h-4.605v20.332zm-30.136.015h4.555V36.825H50.37v20.303zm-9.006.025h4.595V43.855h-4.595v13.298zM98.166 44.94c-3.642-.93-4.546-1.38-4.546-2.76v-.06c0-1.019.934-1.829 2.71-1.829 1.776 0 3.612.78 5.479 2.069l2.408-3.479c-2.137-1.709-4.756-2.669-7.827-2.669-4.305 0-7.863 2.468-7.863 6.277v.06c0 4.169 3.227 5.39 7.472 6.469 3.522.9 4.244 1.288 4.244 2.458v.059c0 1.23-1.144 1.98-3.04 1.98-2.408 0-5.289-.953-7.185-2.512l-2.368 3.206c2.529 2.249 6.1 3.29 9.291 3.29 4.545 0 7.908-2.033 7.908-6.201v-.06c0-3.659-2.408-5.189-6.683-6.298" fill="#333"/></symbol><symbol id="tf-ithr-c2ba1" viewBox="0 0 192 96"><g fill="#333"><path d="M57.456 35.446c-1.286.318-2.615.818-3.756 1.259l-.539.181v-.496c0-1.521-2.242-2.806-4.979-2.806-2.735 0-4.977 1.285-4.977 2.806 0 1.358 1.873 2.543 4.356 2.756l.846.072-.704.562a30.779 30.779 0 0 0-6.643 6.039 39.915 39.915 0 0 0 6.707 7.136 5.832 5.832 0 0 1-.05-.76c0-3.219 2.659-5.838 5.927-5.838s5.927 2.619 5.927 5.838c0 2.625-1.795 4.885-4.31 5.602a43.707 43.707 0 0 0 4.332 1.81l.138.05c2.822-2.938 4.556-6.9 4.556-11.263 0-5.306-2.562-10.022-6.532-13.018l-.299.07z"/><path d="M36.056 36.786c.3.77.631 1.542.982 2.296l.173.373-.403.097c-.664.161-1.668.961-2.412 2.386-.442.847-.695 1.72-.712 2.458-.014.642.157 1.101.469 1.26.313.158.791.028 1.313-.357.599-.443 1.173-1.153 1.615-1.999.281-.538.49-1.1.606-1.628l.195-.885.442.794a40.216 40.216 0 0 0 2.323 3.666 31.5 31.5 0 0 1 5.971-5.544c-2.422-.437-4.101-1.756-4.101-3.313 0-1.953 2.519-3.482 5.734-3.482 2.949 0 5.312 1.286 5.684 3.005.97-.373 2.031-.761 3.108-1.047a16.738 16.738 0 0 0-9.4-2.866c-4.527 0-8.63 1.783-11.631 4.672l.044.114zm18.016 21.17l-.963-.509 1.086-.126c2.673-.309 4.689-2.513 4.689-5.126 0-2.846-2.351-5.161-5.24-5.161-2.89 0-5.24 2.315-5.24 5.161 0 .523.079 1.04.236 1.535l.331 1.051-.873-.685c-2.793-2.19-5.319-4.814-7.478-7.724a29.993 29.993 0 0 0-3.274 5.208c1.247.264 2.563 1.042 3.601 2.143.992 1.053 1.656 2.296 1.87 3.497.224 1.254-.064 2.322-.813 3.006-.523.478-1.22.706-1.994.706-1.442 0-3.152-.793-4.509-2.235a8.421 8.421 0 0 1-.466-.56c-.039.175-.077.352-.114.528l-.048.233a16.701 16.701 0 0 0 12.771 5.89c4.491 0 8.563-1.755 11.557-4.603-1.94-.707-3.666-1.457-5.129-2.229"/><path d="M34.539 57.262l.183-.722.432.61c.005.008.533.749.851 1.087 1.827 1.941 4.309 2.61 5.532 1.492.571-.522.786-1.372.604-2.392-.192-1.075-.795-2.195-1.698-3.153-1.06-1.126-2.421-1.876-3.641-2.007l-.477-.051.203-.429a30.686 30.686 0 0 1 3.666-5.893 41.133 41.133 0 0 1-2.067-3.188 7.856 7.856 0 0 1-.435.993c-.488.936-1.133 1.729-1.814 2.231-.752.555-1.476.703-2.04.418-.563-.286-.862-.952-.841-1.877.019-.838.299-1.816.788-2.752.647-1.239 1.584-2.214 2.473-2.602a40.098 40.098 0 0 1-.772-1.823C32.705 40.134 31 44.067 31 48.394c0 3.685 1.237 7.084 3.32 9.822.07-.319.14-.638.219-.954m33.443-3.777h1.112v-10.26h-1.112v10.26zm9.904-9.281h-3.014v9.281h-1.111v-9.281h-3.014v-.98h7.139v.98zm8.821 9.281h-1.111v-4.683h-4.945v4.683h-1.112v-10.26h1.112v4.596h4.945v-4.596h1.111v10.26zm3.834-9.281v3.761h2.78c.614 0 1.114-.153 1.499-.461.385-.307.578-.778.578-1.412 0-.634-.193-1.107-.578-1.419-.385-.312-.885-.469-1.499-.469h-2.78zm2.882-.98c.449 0 .864.065 1.244.195s.707.317.98.562c.273.245.485.545.636.901.151.355.227.754.227 1.196 0 .749-.21 1.362-.629 1.837-.419.476-.966.781-1.638.915l2.472 4.655h-1.302l-2.37-4.554h-2.502v4.554H89.43V43.224h3.993zm17.876 9.871c.634 0 1.155-.201 1.565-.605.156-.153.28-.329.373-.526a2.71 2.71 0 0 0 .205-.619c.044-.217.07-.435.081-.656a15.62 15.62 0 0 0 0-1.268 4.371 4.371 0 0 0-.081-.656 2.71 2.71 0 0 0-.205-.619 1.818 1.818 0 0 0-.373-.526c-.41-.404-.931-.606-1.565-.606-.625 0-1.146.202-1.566.606a1.686 1.686 0 0 0-.365.526 2.96 2.96 0 0 0-.198.619 4.125 4.125 0 0 0-.08.656 14.035 14.035 0 0 0 0 1.268c.009.221.036.439.08.656.044.216.11.422.198.619.087.197.209.373.365.526.42.404.941.605 1.566.605m0 .476c-.391 0-.744-.06-1.061-.18a2.495 2.495 0 0 1-.87-.569 2.058 2.058 0 0 1-.454-.605 3.155 3.155 0 0 1-.241-.692 4.59 4.59 0 0 1-.103-.728 12.995 12.995 0 0 1 0-1.477c.015-.25.049-.495.103-.735.053-.24.134-.468.241-.684a2.29 2.29 0 0 1 .454-.613c.263-.259.553-.449.87-.569.317-.12.67-.18 1.061-.18.4 0 .755.06 1.068.18a2.516 2.516 0 0 1 1.309 1.182c.112.216.197.444.256.684a4.1 4.1 0 0 1 .11.735 13.148 13.148 0 0 1 0 1.477 4.091 4.091 0 0 1-.11.728c-.059.24-.144.47-.256.692-.112.22-.261.422-.446.605-.508.499-1.151.749-1.931.749m7.534-7.032c.79 0 1.409.221 1.858.662.458.433.687 1.077.687 1.932v4.352h-.527v-4.252c0-.71-.167-1.258-.504-1.642-.336-.384-.856-.577-1.558-.577-.703 0-1.234.195-1.594.584-.362.389-.542.929-.542 1.621v4.266h-.527v-6.86h.527v1.038c.458-.749 1.185-1.124 2.18-1.124m7.314 0c.985 0 1.78.24 2.385.72l-.366.375c-.507-.413-1.18-.62-2.019-.62-.614 0-1.09.123-1.426.368-.337.245-.505.598-.505 1.059 0 .394.127.694.38.901.254.206.629.334 1.127.381l1.141.116c.283.029.548.076.797.144.249.067.463.166.644.295.18.13.324.301.432.512.106.212.161.476.161.792 0 .625-.242 1.113-.725 1.463-.482.351-1.173.526-2.07.526-.614 0-1.138-.089-1.573-.267a3.786 3.786 0 0 1-1.148-.727l.38-.36c.274.278.598.495.974.648.375.153.826.23 1.353.23.75 0 1.319-.124 1.704-.375.385-.249.578-.628.578-1.138a1.19 1.19 0 0 0-.117-.555 1.091 1.091 0 0 0-.322-.374 1.524 1.524 0 0 0-.483-.231 3.375 3.375 0 0 0-.599-.108l-1.171-.115c-1.326-.115-1.99-.701-1.99-1.758 0-.576.22-1.037.659-1.383.439-.346 1.038-.519 1.799-.519m9.846 6.946h-.527v-1.023c-.459.739-1.185 1.109-2.18 1.109-.79 0-1.409-.216-1.858-.648-.458-.423-.687-1.067-.687-1.932v-4.366h.526v4.251c0 .711.171 1.259.512 1.643.341.384.863.576 1.566.576.702 0 1.231-.194 1.587-.583.356-.389.534-.93.534-1.621v-4.266h.527v6.86zm2.969-1.542c0 .336.073.597.22.785.146.187.404.281.775.281h.643v.476h-.746c-.468 0-.821-.135-1.06-.404-.239-.269-.359-.639-.359-1.11v-8.746h.527v8.718zm3.599-5.318h1.638v.418h-1.638v4.914c0 .327.078.583.234.771.156.187.404.281.746.281h.658v.476h-.746c-.458 0-.81-.14-1.053-.418-.244-.279-.366-.649-.366-1.11v-4.914h-1.009v-.418h1.009v-2.233h.527v2.233zm3.525 6.86h.527v-6.86h-.527v6.86zm-.059-9.151h.63v-1.11h-.63v1.11zm6.086 2.205c.791 0 1.41.221 1.858.662.459.433.688 1.077.688 1.932v4.352h-.527v-4.252c0-.71-.168-1.258-.505-1.642-.336-.384-.855-.577-1.557-.577-.703 0-1.234.195-1.595.584-.361.389-.541.929-.541 1.621v4.266h-.527v-6.86h.527v1.038c.458-.749 1.185-1.124 2.179-1.124m7.169.475c-.459 0-.827.089-1.105.267a1.822 1.822 0 0 0-.643.699 2.902 2.902 0 0 0-.301.973 8.326 8.326 0 0 0 0 2.204c.049.361.149.685.301.973.151.288.365.521.643.699.278.178.646.266 1.105.266.458 0 .826-.088 1.104-.266.278-.178.493-.411.644-.699.151-.288.251-.612.3-.973a8.16 8.16 0 0 0 .073-1.102 8.16 8.16 0 0 0-.073-1.102 2.924 2.924 0 0 0-.3-.973 1.824 1.824 0 0 0-.644-.699c-.278-.178-.646-.267-1.104-.267m-.059-.475c.439 0 .851.091 1.236.274.386.182.7.509.944.979v-1.167h.527v7.45c0 .875-.225 1.576-.673 2.104-.449.529-1.122.793-2.019.793-.517 0-.949-.075-1.295-.223a4.065 4.065 0 0 1-1.046-.685l.381-.389c.136.134.273.252.409.353.136.101.28.187.432.259.151.072.319.125.505.159.184.034.394.05.628.05.741 0 1.286-.221 1.631-.663.346-.442.52-1.042.52-1.801v-1.715c-.244.471-.558.798-.944.981a2.856 2.856 0 0 1-1.236.273 2.9 2.9 0 0 1-1.009-.158 1.991 1.991 0 0 1-.717-.448 2.527 2.527 0 0 1-.68-1.217c-.122-.485-.183-1.049-.183-1.693 0-.653.061-1.218.183-1.693a2.63 2.63 0 0 1 .68-1.218c.195-.192.433-.341.717-.446a2.876 2.876 0 0 1 1.009-.159m-52.755 5.221c-.16.253-.348.479-.575.665-.522.428-1.153.642-1.894.642-.829 0-1.527-.269-2.092-.807a2.144 2.144 0 0 1-.461-.613 3.122 3.122 0 0 1-.256-.792 7.458 7.458 0 0 1-.117-1.066c-.02-.409-.03-.887-.03-1.435 0-.547.01-1.025.03-1.434.019-.407.058-.763.117-1.066.059-.302.144-.566.256-.792.112-.226.266-.43.461-.613.565-.537 1.263-.807 2.092-.807.741 0 1.372.214 1.894.642a2.7 2.7 0 0 1 .43.457l.387-.381a3.202 3.202 0 0 0-1.431-1.013 3.752 3.752 0 0 0-1.28-.209c-.527 0-.993.084-1.398.252a3.535 3.535 0 0 0-1.09.714 3.06 3.06 0 0 0-.548.706c-.132.24-.234.523-.307.85-.073.326-.12.706-.139 1.138a34.4 34.4 0 0 0-.03 1.556c0 .606.01 1.124.03 1.557.019.432.066.812.139 1.138.073.327.175.61.307.85.132.241.314.476.548.706.323.308.686.546 1.09.714.405.168.871.252 1.398.252.468 0 .894-.07 1.28-.209a3.294 3.294 0 0 0 1.031-.598c.21-.181.385-.395.544-.624l-.386-.38z"/></g></symbol><symbol id="tf-meresecure-829fd" viewBox="0 0 192 96"><g fill="#333"><path d="M52.438 53.033l-1.443-.893.878-1.465 1.443.893-.878 1.465zm-1.457-1.848l-1.441-.892.878-1.466 1.441.893-.878 1.465zm2.622-.027l-1.441-.892.878-1.466 1.441.894-.878 1.464zm.351 4.085l-1.441-.892.878-1.466 1.441.893-.878 1.465zm1.118-1.894l-1.442-.892.878-1.466 1.442.893-.878 1.465zm2.064-2.291l-1.441-.892.878-1.466 1.441.893-.878 1.465zm9.988 4.052V41.701h.881l5.716 6.616 5.725-6.616h.879V55.11h-2.639l-.008-7.777-3.957 4.47-3.957-4.47v7.777h-2.64zm20.071-6.48a1.961 1.961 0 0 0-1.231-.403c-.469 0-.88.133-1.231.403-.352.268-.528.64-.528 1.116h3.518c0-.476-.176-.848-.528-1.116m-5.63 2.011c0-1.312.411-2.384 1.234-3.218.82-.835 1.876-1.252 3.165-1.252 1.29 0 2.315.417 3.079 1.252.762.834 1.143 1.906 1.143 3.218v.894h-6.069c.058.476.264.849.616 1.117.351.268.762.403 1.231.403.821 0 1.554-.239 2.199-.716l1.405 1.431c-.644.894-1.845 1.34-3.604 1.34-1.289 0-2.345-.416-3.165-1.251-.823-.834-1.234-1.907-1.234-3.218m12.464-3.486a3.052 3.052 0 0 1 2.296-.985c.287 0 .559.025.818.072l-.388 2.468c-.287-.263-.698-.403-1.231-.421-.597.043-1.096.483-1.495 1.324v5.497h-2.461v-8.681l2.461-.268v.994zm9.174 1.475a1.963 1.963 0 0 0-1.231-.403c-.469 0-.88.133-1.231.403-.352.268-.528.64-.528 1.116h3.519c0-.476-.178-.848-.529-1.116m-5.629 2.011c0-1.312.411-2.384 1.232-3.218.821-.835 1.875-1.252 3.166-1.252 1.29 0 2.316.417 3.077 1.252.763.834 1.144 1.906 1.144 3.218v.894h-6.068c.058.476.264.849.616 1.117.351.268.762.403 1.231.403.82 0 1.554-.239 2.198-.716l1.407 1.431c-.645.894-1.845 1.34-3.605 1.34-1.291 0-2.345-.416-3.166-1.251-.821-.834-1.232-1.907-1.232-3.218m17.899-8.493c.672.298 1.304.746 1.89 1.34l-1.759 1.789c-.586-.715-1.407-1.073-2.462-1.073-1.056 0-1.731.253-2.023.76-.294.508-.294.939 0 1.296.292.358.967.627 2.023.805a6.496 6.496 0 0 1 3.034 1.117c.909.626 1.364 1.625 1.364 2.996 0 1.071-.486 1.996-1.457 2.771-.971.774-2.101 1.161-3.391 1.161-1.225 0-2.249-.178-3.068-.536a6.649 6.649 0 0 1-2.112-1.43l1.759-1.788c.588.715 1.583 1.132 2.99 1.252 1.173 0 1.904-.254 2.196-.76.29-.507.29-1.014 0-1.52-.292-.506-1.023-.819-2.196-.939a7.004 7.004 0 0 1-2.901-.984c-.879-.535-1.319-1.459-1.319-2.771 0-1.186.499-2.138 1.499-2.855.999-.718 2.027-1.078 3.083-1.078 1.224 0 2.175.15 2.85.447m8.663 6.482a1.963 1.963 0 0 0-1.231-.403c-.47 0-.881.133-1.233.403-.351.268-.526.64-.526 1.116h3.518c0-.476-.177-.848-.528-1.116m-5.629 2.011c0-1.312.41-2.384 1.231-3.218.821-.835 1.876-1.252 3.167-1.252 1.289 0 2.315.417 3.078 1.252.762.834 1.143 1.906 1.143 3.218v.894h-6.069c.059.476.264.849.615 1.117.352.268.763.403 1.233.403.82 0 1.553-.239 2.198-.716l1.408 1.431c-.645.894-1.847 1.34-3.606 1.34-1.291 0-2.346-.416-3.167-1.251-.821-.834-1.231-1.907-1.231-3.218m10.703 3.352c-.879-.746-1.318-1.714-1.318-2.905v-.894c0-1.193.439-2.16 1.318-2.906.881-.744 1.91-1.117 3.088-1.117 1.407 0 2.576.507 3.51 1.52l-1.76 1.341c-.529-.537-1.114-.805-1.759-.805-.586 0-1.1.238-1.538.715a2.417 2.417 0 0 0-.66 1.698c0 .656.204 1.223.615 1.698.41.478.938.716 1.583.716s1.23-.268 1.759-.804l1.76 1.341c-.94 1.012-2.112 1.52-3.519 1.52-1.173 0-2.198-.373-3.079-1.118m12.939-2.056v-5.776h2.463v8.949h-2.463v-.814a3.038 3.038 0 0 1-2.111.805c-1.114 0-1.963-.342-2.551-1.027a3.544 3.544 0 0 1-.878-2.369v-5.544h2.462v4.918c0 .595.147 1.058.439 1.386.294.327.736.5 1.329.518.51-.036.946-.384 1.31-1.046m6.861-4.782a3.05 3.05 0 0 1 2.294-.985c.288 0 .561.025.818.072l-.386 2.468c-.287-.263-.698-.403-1.231-.421-.599.043-1.098.483-1.495 1.324v5.497h-2.463v-8.681l2.463-.268v.994zm9.173 1.475a1.963 1.963 0 0 0-1.231-.403c-.47 0-.879.133-1.231.403-.353.268-.528.64-.528 1.116h3.519c0-.476-.178-.848-.529-1.116m-5.629 2.011c0-1.312.411-2.384 1.232-3.218.82-.835 1.876-1.252 3.166-1.252 1.289 0 2.315.417 3.078 1.252.761.834 1.143 1.906 1.143 3.218v.894h-6.069c.059.476.264.849.617 1.117.352.268.761.403 1.231.403.82 0 1.553-.239 2.198-.716l1.407 1.431c-.645.894-1.845 1.34-3.605 1.34-1.29 0-2.346-.416-3.166-1.251-.821-.834-1.232-1.907-1.232-3.218m8.447-4.792h.088c.103 0 .187-.035.187-.12 0-.075-.055-.125-.172-.125a.375.375 0 0 0-.103.011v.234zm-.005.465h-.188v-.82c.075-.014.177-.024.309-.024.153 0 .223.024.281.059a.23.23 0 0 1 .079.18c0 .09-.069.16-.166.191v.01c.077.029.121.088.147.198a.647.647 0 0 0 .058.206h-.202c-.024-.03-.038-.106-.063-.2-.014-.09-.064-.13-.167-.13h-.088v.33zm-.497-.43c0 .365.265.654.63.654.353 0 .614-.289.614-.648 0-.365-.261-.66-.62-.66s-.624.295-.624.654zm1.45 0a.816.816 0 0 1-.826.829.823.823 0 1 1 0-1.648c.467 0 .826.364.826.819z"/><path d="M42.149 56.279a2.705 2.705 0 0 1-2.521 1.319l-.909 4.393-4.638-2.874 3.422-2.836a2.8 2.8 0 0 1-.004-2.882 2.697 2.697 0 0 1 3.741-.923c1.284.795 1.692 2.498.909 3.803zm6.606-2.254l-10.101-6.247s2.185-3.622 2.328-3.865c.476-.812 1.822-2.704 5.192-1.254.438.19 1.084.689 1.367.848 1.855 1.148 1.886 3.066 1.821 3.579-.065.513-.658 1.807-.658 1.807l.734.45.79-1.311 1.46.905.022-.03c1.128-2.9.076-6.287-2.633-7.966l-1.345-.832c-3.03-1.875-6.98-.9-8.826 2.179l-2.466 4.111-1.911-1.184-3.384 5.651v7.199c0 3.093 2.483 5.746 5.526 5.746h8.915l5.082-8.539-1.913-1.247z"/><path d="M36.771 33.44c-2.94 0-5.332 2.396-5.332 5.342v19.436c0 2.946 2.392 5.342 5.332 5.342h18.74c2.94 0 5.332-2.396 5.332-5.342V38.782c0-2.946-2.392-5.342-5.332-5.342h-18.74zM55.511 64h-18.74C33.589 64 31 61.406 31 58.218V38.782C31 35.594 33.589 33 36.771 33h18.74c3.182 0 5.77 2.594 5.77 5.782v19.436c0 3.188-2.588 5.782-5.77 5.782z"/></g></symbol><symbol id="tf-nap-24210" viewBox="0 0 279 96"><path d="M36.21 55.157h-1.623L25.779 44.14v11.017H24V40.844h1.507l8.926 11.082V40.844h1.777v14.313m19.556-12.465h-5.583v4.322h5.39v1.847h-5.39v4.449h5.756v1.847H48.29V40.844h7.476v1.848m21.219 0h-4.558v12.465h-1.893V42.692h-4.56v-1.848h11.011v1.848m8.072 4.765h7.827v1.852h-7.827v-1.852zm20.256 1.635h4.095l-2.125-5.184-1.97 5.184zm8.558 6.065h-1.932l-1.759-4.219h-5.602l-1.661 4.219h-1.93l5.659-14.396h1.332l5.893 14.396zm8.602-7.701h7.83v1.853h-7.83v-1.853zm20.914-.337h2.145c1.409 0 2.317-.818 2.317-2.245 0-1.049-.522-2.182-2.24-2.182h-2.222v4.427zm2.222-6.275c2.878 0 4.191 1.848 4.191 4.113 0 2.246-1.391 4.008-4.443 4.008h-1.97v6.192h-1.894V40.844h4.116zm20.353 12.613c2.956 0 5.14-2.329 5.14-5.456 0-3.149-2.184-5.457-5.14-5.457-2.934 0-5.119 2.308-5.119 5.457 0 3.127 2.185 5.456 5.119 5.456zm0-12.802c4.346 0 7.087 3.358 7.087 7.346 0 3.862-2.663 7.344-7.125 7.344-4.308 0-7.032-3.461-7.032-7.344 0-3.967 2.802-7.346 7.07-7.346zm20.13 6.443h1.217c2.028 0 2.607-1.133 2.588-2.33-.02-1.342-.755-2.161-2.588-2.161h-1.217v4.491zm1.43-6.254c2.663 0 4.326 1.532 4.326 4.008 0 1.659-.792 2.897-2.203 3.505 1.198.862 1.933 2.183 2.938 3.968.56.985.888 1.468 1.796 2.832h-2.26l-1.738-2.938c-1.74-2.938-2.532-3.273-3.498-3.273h-.791v6.211h-1.893V40.844h3.323zm26.095 1.848h-4.558v12.465h-1.893V42.692h-4.56v-1.848h11.011v1.848m18.562 0h-5.584v4.322h5.389v1.847h-5.389v4.449h5.758v1.847h-7.65V40.844h7.476v1.848m14.535 4.406h1.216c2.028 0 2.609-1.133 2.59-2.33-.021-1.342-.755-2.161-2.59-2.161h-1.216v4.491zm1.429-6.254c2.666 0 4.326 1.532 4.326 4.008 0 1.659-.792 2.897-2.201 3.505 1.197.862 1.931 2.183 2.936 3.968.558.985.889 1.468 1.796 2.832h-2.259l-1.74-2.938c-1.738-2.938-2.53-3.273-3.495-3.273h-.792v6.211h-1.895V40.844h3.324z" fill="#333"/></symbol><symbol id="tf-nuface-4f0a4" viewBox="0 0 192 96"><path d="M128.703 56c-4.227 0-7.376-3.293-7.376-7.479 0-4.144 3.087-7.521 7.479-7.521 2.672 0 4.289.933 5.678 2.258l-1.638 1.886c-1.16-1.077-2.403-1.804-4.061-1.804-2.775 0-4.785 2.279-4.785 5.138 0 2.86 2.01 5.18 4.785 5.18 1.782 0 2.922-.725 4.165-1.886l1.637 1.657c-1.513 1.576-3.169 2.571-5.884 2.571zm-55.23-6.526c0 4.33-2.444 6.505-6.237 6.505-3.772 0-6.174-2.175-6.174-6.383v-4.488h2.548v4.386c0 2.694 1.388 4.146 3.667 4.146 2.26 0 3.648-1.369 3.648-4.044v-4.488h2.548v4.366zm11.818 6.278h-2.549V41.249h10.794v2.32h-8.245v3.959h7.312v2.318h-7.312v5.906zm67.16-12.225h-8.205v3.772h7.273v2.278h-7.273v3.896h8.308v2.278h-10.857V41.248h10.754v2.279zm-36.768 12.224h-2.694l-1.47-3.5h-6.859l-1.491 3.5h-2.61l6.38-14.607h2.363l6.381 14.607zm-66.552-4.476V41.249h2.507V55.75h-2.135l-7.996-10.315V55.75H39V41.249h2.363l7.768 10.026zm58.948-7.083l-2.486 5.8h4.994l-2.508-5.8zm-46.984-.918h12.422v-2.02H61.095v2.02z" fill="#333"/></symbol><symbol id="tf-noths-c7ef6" viewBox="0 0 144 96"><title>noths</title><g fill="none" fill-rule="evenodd"><path fill="#FFF" style="mix-blend-mode:color" d="M-199-445h1358v876H-199z"/><path d="M24.2 41.658c-.08-.433-.545-.864-.256-1.365-.33-.443-.297-1.672-.39-2.632-.029-.319-.19-.626-.208-.907-.14-2.078-.29-4.312-.346-6.177.86 2.99 1.008 6.314 1.418 9.262.373 2.676.758 5.486 1.288 7.993.061.29.122.573.183.854V29.58c-.703.04-1.408.06-2.116.046a28.305 28.305 0 0 1 2.116-.454v-2.78H46.2c.364-.039.728-.079 1.09-.116 2.284-.235 4.539-.374 6.665-.633 2.855-.347 7.732-.906 10.69-1.072.637-.035 1.088-.112 1.665-.187.675-.088 3.844-.482 3.382-.361-.615.322-4.175.802-4.72.92-.546.119-1.648.214-2.03.275-1.05.168-5.016.633-6.865.85-.259.03-2.1.26-2.353.324h21.114a136.176 136.176 0 0 1-3.071-2.056c1.049.418 2.313 1.254 3.506 2.056h2.9L89.02 36.85v9.436c-1.669-.38-3.04-.237-4.422.001 0 0-1.718.11-1.718 1.65 0 1.816 2.219 1.699 2.219 1.699 1.271.482 3.013.503 3.921.431v8.931L78.376 69.642H51.942c-1.47.204-2.94.364-4.436.448-4.294.242-8.661 1.419-13.2 2.056-1.552.22-3.146.331-4.693.659-.116.029-.142.129-.213.195-.644-.109-1.521-.644-1.12-1.278.01-.184-.169-.136-.2-.27.174-.314.193-1.011-.176-1.142.173-.142.119-.402.05-.668h-2.065V54.229a.186.186 0 0 0-.107-.017c.063-.082.08-.202.107-.315v-.318a.837.837 0 0 1-.051.047c-.076-.357-.123-.486.05-.612v-.077c-.05-.01-.122.006-.179.005.029-.26.028-.378-.116-.568.08-.144.24-.539.01-.465.003-.103.086-.142.218-.14-.003-.126-.207-.003-.293-.026-.003-.161.151-.194.263-.26-.15-.102-.227.079-.305-.143.054-.243.146-.028.288-.03-.198-.26-.196-.234-.405-.539.108-.148.121-.457.05-.644-.008-.022-.194-.19-.189-.154-.048-.323.151-.494.03-.817-.037-.103-.093.048-.126-.103-.289-1.345-.386-2.68-.437-4.251-.025-.076-.149-.033-.236-.034.122-.204-.109-.366.08-.356.015-.258-.11.058-.127-.104.2-.703-.23-1.558-.306-2.406-.003-.042.077-.318.091-.244v.001zm23.862 27.984H29.066c.067.35.124.7.155 1.053.04.445.092 1.16.184 1.781 1.614-.306 3.176-.453 4.636-.65 3.422-.465 6.88-1.316 10.442-1.772 1.2-.154 2.386-.276 3.58-.412zm6.56-5.688c-.831 0-1.495-.632-1.495-1.453 0-.821.664-1.452 1.496-1.452.826 0 1.496.63 1.496 1.452 0 .821-.67 1.453-1.496 1.453zm-2.245-1.98a1.178 1.178 0 0 0-.843-.337c-.511 0-.887.363-.887.858 0 .496.376.86.887.86.305 0 .593-.092.843-.338v.654c-.228.184-.543.277-.88.277-.85 0-1.497-.615-1.497-1.453 0-.837.647-1.452 1.497-1.452.337 0 .652.098.88.277v.653zm-3.755 1.942a.382.382 0 0 1-.381-.376c0-.207.18-.37.38-.37.202 0 .376.163.376.37a.377.377 0 0 1-.375.376zm12.368-.044v-1.698c0-.674-.347-1.098-.951-1.098-.398 0-.73.135-.898.478-.13-.304-.386-.478-.767-.478-.36 0-.626.185-.74.446v-.392h-.647v2.742h.647v-1.579c0-.374.228-.635.533-.635.315 0 .49.24.49.61v1.604h.647v-1.579c0-.374.229-.635.544-.635.316 0 .49.24.49.61v1.604h.652zm-6.386-2.23a.839.839 0 0 0-.85.86.84.84 0 0 0 .85.859.842.842 0 0 0 .849-.86c0-.485-.37-.86-.85-.86zm-14.848-6.478c-1.04-.39-1.858-.817-1.858-1.96 0-1.068.91-1.746 2.006-1.746.985 0 1.617.454 1.997 1.05l-.826.567c-.232-.363-.595-.576-1.152-.576-.511 0-.883.287-.883.687 0 .594.52.696 1.468 1.086 1.18.475 1.727.976 1.727 1.97 0 1.096-.742 1.914-2.266 1.914-1.236 0-2.09-.585-2.49-1.477l.874-.548c.297.585.845.984 1.625.984.901 0 1.097-.53 1.097-.845 0-.585-.53-.808-1.32-1.106zm12.148-3.594h-2.518v6.474h1.162V55.74H51.7l1.384 2.304h1.31l-1.57-2.582c.696-.288 1.18-.985 1.18-1.84 0-1.17-.948-2.052-2.1-2.052zM70.3 58.044V52.62h1.756v-1.05h-4.673v1.05h1.756v5.424H70.3zm-10.21 0v-1.05h-3.03v-1.783h2.778v-1.05H57.06V52.62h2.964v-1.05h-4.126v6.474h4.19zm6.027 0v-1.05h-3.028v-1.783h2.777v-1.05h-2.777V52.62h2.963v-1.05h-4.125v6.474h4.19zm-19.905 0V52.62h1.756v-1.05h-4.673v1.05h1.756v5.424h1.161zm46.063-7.09s.329-.221.402-.403c0 0 2.104.308 5.293-.471 2.546-.621 3.653-.876 3.653-.876.277-.026 7.473.84 12.949 1.7 1.3.203 2.9.46 2.9.46l-.44 3.362s-10.895-1.716-16.12-2.201c-4.09-.38-6.524-.776-8.637-1.57zM51.857 52.62c.558 0 .976.426.976 1.02 0 .624-.437 1.06-1.069 1.06H50.53v-2.08h1.328zm37.529-7.259s1.498.318 2.804 2.319c.197.292.66 1.21.417 2.1-.275 1.004-1.382 1.426-1.382 1.426l-1.98-1.24s.986-.694.986-2.038c0-1.798-.845-2.567-.845-2.567zm3.47 4.829s.214-.426.181-1.142-.404-1.35-.404-1.35 1.632-.098 5.163-1.205c3.531-1.106 13.18-3.45 15.214-3.906 2.034-.455 7.957-1.805 8.006-1.805.049 0 .163 1.041.326 1.643.162.603.406 1.627.406 1.627s-10.186 2.392-12.708 2.994c-2.522.602-9.783 2.336-11.654 2.757-1.415.319-2.69.468-4.53.387zm-7.61-.862c.048-1.108-.39-2.744-.39-2.744s1.2-.188 2.443-.188c1.244 0 2.342.448 2.342.448s.325.585.144 1.537c-.147.776-.897 1.312-.897 1.312-2.47.093-3.641-.365-3.641-.365zm-15.214-2.946c-.057.398-.262.748-.61 1.039-.368.307-.79.463-1.253.463-.545 0-1.06-.21-1.527-.623-.501-.445-.754-1.019-.754-1.706 0-.667.227-1.229.676-1.67.45-.45 1.013-.679 1.677-.679.737 0 1.372.342 1.888 1.018l.043.057.792-.747-.04-.046c-.41-.46-.832-.797-1.258-1.002a3.402 3.402 0 0 0-1.442-.31c-.954 0-1.775.332-2.442.987a3.241 3.241 0 0 0-1.002 2.396c0 .919.331 1.716.986 2.371a3.25 3.25 0 0 0 2.37.984c.942 0 1.729-.343 2.339-1.02.27-.302.465-.632.58-.98a4.38 4.38 0 0 0 .173-1.289v-.274h-2.8v1.03h1.604zm-28.894-1.576h-3.112v-2.527h-1.16v6.475h1.16v-2.898h3.112v2.898h1.152v-6.475h-1.152v2.527zm7.432 3.948v-1.05h-3.028v-1.783h2.778v-1.05h-2.778V43.33h2.963v-1.05h-4.124v6.475h4.189zm29.04-3.948h-3.112v-2.527h-1.161v6.475h1.16v-2.898h3.113v2.898h1.151v-6.475h-1.15v2.527zm-15.734 3.948h1.161v-6.475h-1.161v6.475zm-28.187 0v-5.425h1.756v-1.05h-4.673v1.05h1.756v5.425h1.161zm24.626-3.948h-3.112v-2.527h-1.16v6.475h1.16v-2.898h3.112v2.898h1.152v-6.475h-1.152v2.527zm31.296 1.663s-.046-.261-.366-.64v.526s.152.028.366.114zM40.56 32.99v4.088l-4.412-4.33v6.717h1.161v-4.07l4.413 4.312V32.99H40.56zm31.667 0v4.088l-4.413-4.33v6.717h1.161v-4.07l4.413 4.312V32.99h-1.161zm-25.379-.112c1.905 0 3.428 1.46 3.428 3.363 0 1.905-1.523 3.354-3.428 3.354-1.896 0-3.418-1.449-3.418-3.354 0-1.904 1.522-3.363 3.418-3.363zm15.83 0c1.904 0 3.428 1.46 3.428 3.363 0 1.905-1.524 3.354-3.429 3.354-1.894 0-3.418-1.449-3.418-3.354 0-1.904 1.524-3.363 3.418-3.363zm-8.584 6.587V34.04h1.756v-1.05h-4.672v1.05h1.756v5.425h1.16zm8.564-.92c1.293 0 2.277-1.003 2.277-2.304 0-1.29-.984-2.313-2.277-2.313-1.29 0-2.275 1.013-2.275 2.313 0 1.31.985 2.305 2.275 2.305zm-15.829 0c1.291 0 2.277-1.003 2.277-2.304 0-1.29-.986-2.313-2.277-2.313-1.291 0-2.276 1.013-2.276 2.313 0 1.31.985 2.305 2.276 2.305z" fill="#333"/></g></symbol><symbol id="tf-statful-ca03b" viewBox="0 0 192 96"><path d="M80.318 55.677c0 .825-.158 1.595-.47 2.317a6.374 6.374 0 0 1-1.245 1.894 5.616 5.616 0 0 1-1.833 1.28 5.606 5.606 0 0 1-2.258.458 5.605 5.605 0 0 1-2.26-.458 5.912 5.912 0 0 1-3.098-3.174 6.004 6.004 0 0 1-.447-2.317v-3.035l3.507-.399v3.434c0 .666.219 1.225.663 1.676.44.452.985.679 1.635.679.647 0 1.193-.227 1.637-.679.44-.451.662-1.01.662-1.676v-1.878c0-.185-.034-.377-.098-.578a2.62 2.62 0 0 0-.216-.498 5.303 5.303 0 0 1-.272-.48l-6.155-7.545a8.01 8.01 0 0 1-.7-1.118 6.167 6.167 0 0 1-.47-1.218 5.588 5.588 0 0 1-.193-1.498v-1.037c0-.825.149-1.598.447-2.316a5.735 5.735 0 0 1 1.246-1.878 6.3 6.3 0 0 1 1.852-1.277 5.393 5.393 0 0 1 2.26-.478c.802 0 1.557.159 2.258.478a6.012 6.012 0 0 1 1.833 1.277c.519.533.935 1.16 1.245 1.878.312.718.47 1.491.47 2.316v2.434l-3.507.4v-2.834c0-.666-.222-1.225-.662-1.676-.444-.455-.99-.679-1.637-.679-.65 0-1.195.224-1.635.679-.444.451-.663 1.01-.663 1.676v1.037c0 .24.025.455.076.64.054.185.104.344.155.478.08.159.171.292.273.399l6.157 7.545c.26.347.492.734.701 1.16.181.373.352.793.507 1.257.156.465.235.952.235 1.456v1.878zm2.521-21.399h10.83v3.594h-3.662v23.354h-3.506V37.872h-3.662v-3.594zm25.695 0h10.83v3.594h-3.662v23.354h-3.506V37.872h-3.662v-3.594zm14.093 0h9.157v3.594h-5.65v8.103h3.976v3.593h-3.976v11.658h-3.507V34.278zm20.365 0h3.507v21.438a5.99 5.99 0 0 1-.447 2.317 5.873 5.873 0 0 1-1.227 1.875 5.78 5.78 0 0 1-1.833 1.26c-.7.305-1.439.458-2.219.458a5.61 5.61 0 0 1-2.261-.458 5.796 5.796 0 0 1-1.829-1.26 5.873 5.873 0 0 1-1.227-1.875 5.92 5.92 0 0 1-.451-2.317V34.278h3.507v21.438c0 .64.222 1.186.663 1.637.44.452.973.68 1.598.68.596 0 1.116-.228 1.56-.68.44-.451.659-.997.659-1.637V34.278zm7.822 0h3.507v23.355h5.612v3.593h-9.119V34.278zm-46.713 26.948h3.507l-4.014-26.948h-4.988l-4.011 26.948h3.504l2.961-22.636h.08l1.158 8.755v.001l1.803 13.88zm-61.78-14.761h1.263l.491-.066 3.269.132 2.304 1.497 3.82-.775-.178 3.987-.891-.787-.31.307-4.57 4.568-5.947 6.017h18.316V28.909L42.321 46.465z" fill="#333"/><path d="M41.491 47.295l.816.72-3.82.775.178-3.987.87.768 7.663-7.658 3.526-3.574-18.657-.001v32.753l18.375-18.363-.794-.7 3.821-.775.922-1.014 5.497-6.663V28.909L41.491 47.295z" fill="#333"/></symbol><symbol id="tf-streamamp-d868e" viewBox="0 0 192 96"><g fill="#333"><path d="M47.093 50.118a8.495 8.495 0 0 0-1.071-1.43c-.452-.5-1.03-1.083-1.735-1.749a26.022 26.022 0 0 1-1.193-1.194 6.066 6.066 0 0 1-.732-.945 3.236 3.236 0 0 1-.38-.846 3.361 3.361 0 0 1-.108-.875c0-.555.135-.999.407-1.332.271-.333.641-.5 1.112-.5.505 0 .871.167 1.098.5.225.333.383.916.474 1.749l2.63-.389c-.326-2.961-1.69-4.442-4.094-4.442-1.284 0-2.314.416-3.091 1.249-.778.833-1.166 1.944-1.166 3.332 0 .518.054 1.004.163 1.458.108.453.284.902.529 1.346.244.445.559.902.948 1.375.389.472.872.976 1.451 1.513a41.98 41.98 0 0 1 1.464 1.416c.145.148.262.277.352.389.091.111.191.24.298.388.471.648.705 1.315.705 1.999 0 .63-.149 1.124-.447 1.486-.298.361-.7.541-1.206.541-1.211 0-1.853-.962-1.925-2.887L39 52.741c.018.759.14 1.444.366 2.055.226.611.533 1.134.922 1.569a4.04 4.04 0 0 0 1.396 1.013c.543.24 1.148.361 1.817.361.632 0 1.211-.116 1.735-.347a3.978 3.978 0 0 0 1.355-.972 4.37 4.37 0 0 0 .882-1.499 5.733 5.733 0 0 0 .311-1.93c0-.555-.049-1.059-.149-1.513a4.754 4.754 0 0 0-.542-1.36zm2.535-8.269h2.874v15.612h2.711V41.849h2.928v-2.583h-8.513v2.583zm16.498 4.421c-.081.389-.194.694-.339.916-.145.241-.326.403-.543.486-.216.083-.56.125-1.03.125h-1.13v-5.948h1.13c.416 0 .733.032.949.097.217.065.398.19.543.375.162.204.293.513.393.93.099.416.149.884.149 1.402 0 .463-.041 1.228-.122 1.617m2.426 1.214c.271-.702.407-1.656.407-2.859 0-1.85-.357-3.206-1.071-4.068-.714-.86-1.866-1.29-3.456-1.29h-3.797v18.194h2.449v-7.059h1.564l1.708 7.059h2.875l-2.088-8.171c.668-.5 1.138-1.102 1.409-1.806m15.779-8.185l-2.955 18.162h2.684l.624-4.081.38-2.582 1.03-7.386 1.085 7.386.406 2.582.624 4.081h2.792l-3.145-18.162h-3.525zm15.482 12.144L97.562 39.3h-3.833v18.161h2.522V46.563l2.301 10.898h2.383l2.077-10.898v10.898h2.521V39.3h-3.66l-2.06 12.143zm-28.271-9.594h7.67v-2.582h-7.67v2.582zm0 7.924h7.67v-2.582h-7.67v2.582zm0 7.925h7.67v-2.582h-7.67v2.582zm75.578-15.102a1.27 1.27 0 0 0-.678-.444c-.289-.084-.651-.125-1.085-.125h-1.188v5.691h1.188c.434 0 .796-.041 1.085-.125.289-.082.515-.231.678-.444.162-.212.275-.504.338-.874a8.58 8.58 0 0 0 .095-1.416c0-.556-.031-1.018-.095-1.388-.063-.37-.176-.662-.338-.875"/><path d="M149.7 47.514c-.162.694-.429 1.259-.8 1.694-.37.434-.854.745-1.45.929-.597.186-1.329.278-2.196.278h-1.085v7.047h-2.712V39.299h3.797c.867 0 1.599.093 2.196.278.596.185 1.08.496 1.45.93.371.435.638.995.8 1.68.163.684.244 1.787.244 2.786 0 1-.081 1.846-.244 2.541zm-10.759 9.948h-2.521V46.564l-2.077 10.898h-2.382l-2.302-10.898v10.898h-2.522V39.299h3.834l2.25 12.144 2.06-12.144h3.66v18.163zm-17.325 0l-.624-4.082-.406-2.582-1.085-7.386-1.03 7.386-.379 2.582-.624 4.082h-2.684l2.955-18.163h3.525l3.145 18.163h-2.793zM152.099 36H112.35c-.898 0-1.632.752-1.632 1.672V59.31c0 .92.734 1.673 1.632 1.673h39.749c.898 0 1.633-.753 1.633-1.673V37.672c0-.92-.735-1.672-1.633-1.672z"/></g></symbol><symbol id="tf-tui-d6ab2" viewBox="0 0 144 96"><path d="M108.174 63.476a2.85 2.85 0 0 1-.812.434c-.488.27-1.029.541-1.517.541-.324 0-.596-.108-.757-.271-.11-.054-.163-.162-.218-.216 0-.054-.055-.109-.108-.163-.107-.162-.27-.379-.38-.704-.757.758-2.166 1.408-4.17 1.408-1.733 0-3.088-.433-4.01-1.3-.974-.921-1.515-2.221-1.515-3.954v-10.13c0-.433.107-.703.433-.974.27-.218.919-.326 1.678-.326.759 0 1.355.108 1.681.326.27.271.378.541.378.974v9.643c0 1.462.596 2.166 2.276 2.166 1.679 0 2.708-1.029 2.708-2.437v-9.372c0-.433.108-.703.38-.974.324-.218.92-.326 1.679-.326.758 0 1.354.108 1.68.326.324.271.378.541.378.974v11.213c0 .38.055.705.108.975.108.271.163.488.218.596.163.271.27.542.27.867 0 .325-.217.542-.38.704zm-18.526-11.7v11.213c0 .433-.108.704-.379.975-.325.216-.921.325-1.68.325-.759 0-1.408-.109-1.733-.379-.271-.217-.379-.488-.379-.921V52.101l-1.896.108c-1.735.108-1.788-1.354-1.788-2.113 0-1.626.596-2.167 1.679-2.167h8.234c.814 0 1.408.218 1.626 1.409.27 1.246.163 2.167-1.247 2.275l-2.437.163zm25.949 12.188c-.325.271-.921.325-1.68.325-.759 0-1.355-.054-1.678-.325-.326-.217-.381-.542-.381-.921V49.121c0-.433.055-.704.381-.974.323-.218.919-.326 1.678-.326.759 0 1.355.108 1.68.326.326.27.379.541.379.974v13.922c0 .433-.053.704-.379.921zM41.163 40.291c1.084 0 1.896.325 2.222 1.843.324 1.733.162 2.87-1.734 3.033l-3.413.218c2.492 16.033 17.335 21.233 25.407 4.007 1.3-2.87 1.733-3.359 3.196-3.033 2.004.488 2.276 1.517 1.3 4.387-6.933 21.289-30.39 23.402-34.995-4.983l-2.763.216C28.108 46.141 28 44.192 28 43.163c0-2.113.758-2.872 2.166-2.872h10.997zM70.037 30a4.056 4.056 0 0 1 4.063 4.062 4.023 4.023 0 0 1-4.063 4.063 4.058 4.058 0 0 1-4.063-4.063c0-2.221 1.842-4.062 4.063-4.062z" fill="#333"/></symbol><symbol id="tf-tvg-f15ae" viewBox="0 0 192 96"><path d="M140.368 37.69h-16.113l-8.89 13.06h-.067l-2.082-13.06H77.109l-1.342 5.147h9.64l-3.96 15.21h9.863l3.968-15.21h8.586l4.404 15.21h10.34l11.448-14.133c-.777 1.156-1.39 2.493-1.792 4.037-2.436 9.39 6.627 10.786 13.526 10.786l16.966-.69 3.022-11.607h-14.02l-1.21 4.606h4.067c-1.112 1.535-2.972 2.56-6.19 2.56-4.883 0-6.817-1.986-5.837-5.754 1.078-4.104 4.042-5.705 8.059-5.705 1.284 0 2.363.107 3.21.476.824.353 1.392 1.01 1.392 2.069h11.121c.593-5.23-3.984-7.692-14.95-7.692-2.27 0-4.7.186-7.052.69zm-68.143-.574L66.29 58.989H30l2.497-9.26h6.051v-.937h-5.796l.634-2.318h8.81v-.92H33.62l.658-2.339h12.46v-.924H34.532l1.402-5.182 36.29.007zM58.383 42.27l7.573 8.324-2.166 3.026-.706-.57 1.688-2.373-7.03-7.741.64-.666zm-3.472 4.474l.84.083s-.513 4.083 3.207 3.984l.02.882s-4.466.47-4.067-4.949zm4.54-7.143S45.264 41.876 35.49 55.465l.895.67s8.335-12.216 23.29-15.513l-.224-1.02z" fill="#333" fill-rule="evenodd"/></symbol></defs><view id="view-tf-logo-8a520" viewBox="0 0 7.89 50"></view><view id="view-tf-minder-5a2b0" viewBox="50 0 40.48 50"></view><view id="view-tf-hamburger-77512" viewBox="100 0 65.38 50"></view><view id="view-tf-hamburger-mobile-ee35a" viewBox="200 0 65.38 50"></view><view id="view-tf-hamburger-0d517" viewBox="300 0 50 50"></view><view id="view-tf-noths-white-6b41d" viewBox="350 0 75 50"></view><view id="view-tf-nuface-white-3a1b6" viewBox="450 0 100 50"></view><view id="view-tf-iris-05d7b" viewBox="550 0 75 50"></view><view id="view-tf-ithr-c2ba1" viewBox="650 0 100 50"></view><view id="view-tf-meresecure-829fd" viewBox="750 0 100 50"></view><view id="view-tf-nap-24210" viewBox="850 0 145.31 50"></view><view id="view-tf-nuface-4f0a4" viewBox="0 50 100 50"></view><view id="view-tf-noths-c7ef6" viewBox="100 50 75 50"></view><view id="view-tf-statful-ca03b" viewBox="200 50 100 50"></view><view id="view-tf-streamamp-d868e" viewBox="300 50 100 50"></view><view id="view-tf-tui-d6ab2" viewBox="400 50 75 50"></view><view id="view-tf-tvg-f15ae" viewBox="500 50 100 50"></view><use id="logo-8a520" xlink:href="#tf-logo-8a520" width="7.89" height="50" x="0" y="0"></use><use id="minder-5a2b0" xlink:href="#tf-minder-5a2b0" width="40.48" height="50" x="50" y="0"></use><use id="hamburger-77512" xlink:href="#tf-hamburger-77512" width="65.38" height="50" x="100" y="0"></use><use id="hamburger-mobile-ee35a" xlink:href="#tf-hamburger-mobile-ee35a" width="65.38" height="50" x="200" y="0"></use><use id="hamburger-0d517" xlink:href="#tf-hamburger-0d517" width="50" height="50" x="300" y="0"></use><use id="noths-white-6b41d" xlink:href="#tf-noths-white-6b41d" width="75" height="50" x="350" y="0"></use><use id="nuface-white-3a1b6" xlink:href="#tf-nuface-white-3a1b6" width="100" height="50" x="450" y="0"></use><use id="iris-05d7b" xlink:href="#tf-iris-05d7b" width="75" height="50" x="550" y="0"></use><use id="ithr-c2ba1" xlink:href="#tf-ithr-c2ba1" width="100" height="50" x="650" y="0"></use><use id="meresecure-829fd" xlink:href="#tf-meresecure-829fd" width="100" height="50" x="750" y="0"></use><use id="nap-24210" xlink:href="#tf-nap-24210" width="145.31" height="50" x="850" y="0"></use><use id="nuface-4f0a4" xlink:href="#tf-nuface-4f0a4" width="100" height="50" x="0" y="50"></use><use id="noths-c7ef6" xlink:href="#tf-noths-c7ef6" width="75" height="50" x="100" y="50"></use><use id="statful-ca03b" xlink:href="#tf-statful-ca03b" width="100" height="50" x="200" y="50"></use><use id="streamamp-d868e" xlink:href="#tf-streamamp-d868e" width="100" height="50" x="300" y="50"></use><use id="tui-d6ab2" xlink:href="#tf-tui-d6ab2" width="75" height="50" x="400" y="50"></use><use id="tvg-f15ae" xlink:href="#tf-tvg-f15ae" width="100" height="50" x="500" y="50"></use></svg>